<?xml version="1.0" encoding="utf-8"?>
<!-- Generator: Adobe Illustrator 25.0.1, SVG Export Plug-In . SVG Version: 6.00 Build 0)  -->
<svg version="1.1" id="Layer_1" xmlns="http://www.w3.org/2000/svg" xmlns:xlink="http://www.w3.org/1999/xlink" x="0px" y="0px"
	 viewBox="0 0 1920 808" style="enable-background:new 0 0 1920 808;" xml:space="preserve">
<style type="text/css">
	.st0{fill:#1977CC;}
	.st1{fill:none;stroke:#FFFFFF;stroke-width:4.0206;stroke-linecap:round;stroke-linejoin:round;}
	.st2{fill:none;stroke:#070D37;stroke-width:4.0206;stroke-linecap:round;stroke-linejoin:round;}
</style>
<rect class="st0" width="1920" height="808"/>
<image style="overflow:visible;" width="1920" height="808" xlink:href="hero-bg.jpg"  transform="matrix(1 0 0 1 2000.2252 1389.4695)">
</image>
<g>
	<path class="st1" d="M934,612.7l93.6,0.3c0,0-84.9-201.3-39.7-255.9c37.2-45,91.3,44,110.3,97.5l6.4-3.7c0,0,16.4-41.2,23.4-69.5
		c22.6-47.5,49.2-58.9,60.6-79.3c2.9-5.2,5.4-22.7,15.5-14.5c0,0-16.4,15.5-21-5.5c-4.7-21.1,19.3-6.5-3.8,2.5
		c-23.1,9-35.8-39.3-13.3-59c0,0,24.8,70,10.1,50c-14.7-20-18.1-62,1.2-53.8c19.3,8.2,12.1,61.3,10.7,41.6
		c-1.4-19.7-15-38.2,3.5-50.6c23.6-15.9,39.1-15.6,60.3-9.8c17,4.7,32.9-1,26.5,30c0,0-2.6-6-17.7-15.5l-13.1,1.5
		c0,0-11.3,4.8-6.2,10.3c5.2,5.5,11.9,10.7,11.9,10.7s-14.4,6.1-14.4,23.4c0,0-9.7-12.2-15.2-6.7c-5.5,5.5,6.5,35.5,13.1,23.3
		c0,0,1.2,25.6,12,24.8c10.7-0.9,24.4,0.1,26.3-3.6c1.9-3.7,2.7-30.2,2.7-30.2s8.5-4,8.9-5.5c0.4-1.5-9.7-11.7-9.7-11.7
		s0.4-7.5-0.3-11.2c-0.5-2.9-2-3.1-3.1,2.3c-1.7,8.4-1.2,19.4,0.5,19.2c1.7-0.2,2.6-9.1,2.6-9.1l-4.4-4.3l-51.4,1.7
		c0,0-18.2,5.2-13.5,12.4c4.7,7.2,18.8,7.3,15,15.3l-14.2,8.3c0,0,7.8,6,11.5,21.4c3.8,15.3,16.2,30.2,16.2,30.2s-7.4-18.5,2.8-29.1
		c8.6-8.4-0.2,4.5-0.2,18.2c0,16,0.6,16.9,7.5,33.3c0,0-11.2,14.6-27.3-2c-16.1-16.6-20.3-22.7-33.4-22.3
		c-13.1,0.4-24.6-12-3.3-10.5c21.3,1.6,30.5,34.3,32.8,55.9c2.2,21.6,4.2,33.5,7.1,61.2c2.9,27.7,9.6,10,27.1-6.8
		c0,0,15.2-16.2,4.4-60.7c0,0,6.1,8.2,8.6,23c2.5,14.8,2.1,21.6,2.1,21.6s22.4,8.7,40.1,8.1c17.7-0.7,17.7,0.2,34,0.9
		c14.7,0.6,23.8-3.5,30.6-4.4c6.3-0.8,12.8,6.8,18.6,13.3c7,7.8,19.2,18,14.4,18.3c-3.5,0.3-21.6-17.2-21.6-17.2s-18.3-9,0.1,2.7
		c7.1,4.5,10.1,5.9,8.1,7.6c-3.3,3-14.2-5.1-26.2-4.4c-19.6,1.1-42.7,2.1-60,3.9c-17.3,1.8-47.7-1.1-50.3-2.9
		c-2.6-1.8-25.9,27.6-25.9,27.6s15.2-8.7,44.7-12.4c8.9-1.1,14.9,0.4,37.2-5.4c22.3-5.8,40.8-12.5,58-9.7c17.2,2.8,26.5,8.3,25.2,13
		c-1.3,4.7-14.6-3.8-14.6-3.8l-12.9,0.3c0,0,13.7,0.7,16.1,4.1c2.4,3.5,4.3,8.9,1.8,10.7c-2.5,1.8-6.2-6.4-6.2-6.4l-19.1-2.6
		l16.5,3.7c0,0,8.1,5.4,5.7,8.6c-2.5,3.2-9.2-2.6-9.2-2.6l-12.9-1.5c0,0,12.7,3.8,16.5,5.3c3.8,1.5,8.8,4.6,4.5,7.2
		c-4.3,2.5-17.2-3.9-17.2-3.9s-19.2-1.4-24.8-3.8c-5.6-2.5-13.2,0.1-13.2,0.1s-90.7,40.1-110.7,29c-20-11.1-40.4-76.5-46.1-104
		c-5.7-27.4-19.8-59.2-21.6-19.4c-1.8,39.8,22.5,38.2,22.5,38.2l-33.9-28.1c0,0,3.8,35.5,35.2,50.2c0,0-15.7,5.3,4.2,15.8
		c0,0-36.3-15.1,0,17.2c0,0,7.9,2.7,9,18.3c0,0,9.5,10.4,18.3,12.3c0,0-2.5,13.9-25,6.1c-22.5-7.9-22.4,7.4-36.9,5.5
		c-14.5-1.9-41-6.1-41-6.1s6.4-28.6,8.3-49.5c0,0-21.8,49.9-18.7,69.1c2.1,13.2,24-0.2,66.9-3.3c42.9-3.1,78.1,7.6,64.6,9.5
		c-13.5,1.9-86.5,3.4-86.5,3.4s-16.6,2.1-34.3,8.6c0,0,107.8,35.4,135-6.2c10.9-16.7-13.7-20.3,26-16.3c39.7,4,73.2,17.4,83,25.9
		c9.8,8.5,4.3,61.7,4.3,61.7l18.2,0.1l-16.9-83.1l-49-24.3l-6.3-11.7l256.9,3.2l1.3-7.3l-145-9.8l26.9-29.4l89.7,5.1l-14.8,3
		c0,0-16.2,14.2-19.1,17c0,0,2.6,3.8,12.5-5.2c9.9-8.9,9.6-7.2,9.6-7.2s-18.1,13.5-16.7,15.1c1.4,1.5,6.7,1.3,10.3-2.1
		c3.6-3.4,13.8-11.4,13.8-11.4s-19.5,15-17.6,16.2c2.8,1.4,7.3-1.2,12.5-5.3c5.2-4.1,8-6.6,8-6.6s20.6-42.1,24.4-40.8
		c3.8,1.3-16.1,33.2-23.6,40.1c0,0-14.9,12.5-14.4,13.2c0.8,0.9,6.4,1.9,11.3-2.5c4.9-4.4,11.8-9.4,11.8-9.4s14.5,3.8,21.1-9.1
		c2.6-5.1-14.4-5.8-14.4-5.8s0.9-1.8,15.7-6.1c14.8-4.3,17.2-14.9,24.5-19.3c0,0,25.9-0.5,19.6,25.5c0,0,13.5-3,4.1-20.2
		c-9.4-17.3-23.1-8.9-23.1-8.9s-6.2-14.5-0.7-52.6c0,0-11.2-27.6-13.6-48.4c0,0-12.7-8.1-2.9-22.8c9.8-14.7,10.3-5,14.9-11.3
		c3.4-4.7-11.2-2.4-20.2-1.8c-3.2,0.2-6-2.3-6.2-5.5c-0.1-2.1-0.1-4.7,0.2-7.8l-1.7-1.7c-1.3-1.4-1.3-3.6,0.1-4.9l2.3-2.2
		c0,0-1.3-0.7-3.8-1.8c-1.9-0.8-2.8-2.2-2.4-4.3l1.2-3.5c0,0-10.7-3.9-9.6-5.4c2.7-3.7,8.1-9.8,9.5-16.3c0,0-0.7-1.3-4-8.1
		c0,0-2.4-10.8,1.8-16.3c0,0-9.4,8.2-6.1,22.1c0,0-15.1-31,18.7-43.3c0,0,32.7-37.6,66.3-3.7c0,0,11.3,2.9,15,28.7
		c0,0-10.8,0.5,11.9,17.3c0,0,24.8,14.4-0.4,19.8c-25.2,5.4-5.4-8.8,2.6-28.9c7.9-20.1-25.9-21.9-9.9-8.8
		c16,13.1,15.3-1.8,23.2,11.3c7.9,13.1-7.2,44.1-30.9,29.3c-23.6-14.9,14.9-47.1,7-23.4c-7.9,23.7-15.5,30.1-21.1,29.8
		c-5.6-0.4-13.9-13.2-13.9-13.2s6.3-22.1-7.6-23.9c-13.9-1.8-9,16.6-9,16.6s-7.6-4.9-14.1-7.2c-6.5-2.2-16.6-15.3-24.7-23.5
		c0,0-1.9,5.2,0.4,10.1c2.3,4.9,0.5,7.3,11,11.5c10.5,4.1,8.9,9.5,16.7,10.8c7.8,1.3,14.9,5.8,15.7,11.9c0.7,6.2-2.9,23.5-2.9,23.5
		l-6.5,5.8l11.9,11.7l8.2,23.7l-0.1,0c0,0-8.4-2.3-9,17.4c-0.7,19.7,0.9,30.7,1.5,33.2c0.6,2.5,10.6,54.1,10.6,54.1
		s0.9-81.1,13.3-106c0,0,1.4-30.1,9.3-44.8c0,0,11.9,15.2,23.1,16.9c11.2,1.7,34.6-0.3,37,18.2c2.4,18.5-2.2,10.2,8.4,33.3
		c10.6,23,21.4,78.3,21.4,78.3s6.4,18.3-1.9,31.3c-8.4,13-37.2,33-77.2,31.5c-30.2-2.1-41.5,1.4-41.5,1.4l-16.4,5.9
		c0,0-16.4,11.5-25.3,12c0,0-1.6-2.2,8.4-8.8c5.8-3.8,15.5-10.9,15.5-10.9s-7.6-0.6-14.2,1.3c-6.6,1.9-28.1,5.8-30.7,4.7
		c-2.6-1,17.4-9.1,26.6-12.1c0,0-33.7,14.5-35.4,8.6c-1-3.5,32.4-14.1,32.4-14.1s-38.1,15.3-40,11.8c-1.9-3.5,47.6-23.9,47.6-23.9
		s7.4,4,19.2,3.9c11.8-0.1,25.6-2.9,41.9-5.9c16.2-3,20-7.7,30.7-6c13,3.2-9.5,35.1-34.7,45.5c-25.3,10.5-81.8,36.3-93.7,54.4
		c-7.7,12,7.5,63.1,7.5,63.1l26.5,0.1c0,0-9.9-47,0.7-55.8c10.5-8.9,49.3-28.2,49.3-28.2s-66.6-16-8.9-8.3
		c36.7,5.2,66.9,54.7,66.9,54.7s-1.4,2.8-54.1,14.2c-3.8,13.3-3.4,44.9,4.4,5.2c0,0,40.9-12.9,79.7-15.1
		c38.8-2.2,52.1-16.6,58.6-29.2c13.3-26.1-6.9-55.9-25-73c0,0,64.9,42.3,71.1,26.5c6.2-15.8,89.8-214.2,27.9-217.5
		c-61.8-3.4-60.8,6.8-69.8,24.1c-9.5,18.2-71.2,150.5,8.7,176.6c12.1,3.9,25.1,14.5,42-28.3c0,0,43-12,33.2,19.1
		c-9.8,31.1-20.9,53.2-20.9,53.2s-184.2-21.9-132.7,5c35.8,18.6,122.4,9.4,122.4,9.4l0,14.9l-60.5,9.5c0,0-50.7,38.8-47.1,43.8
		c19.1,0.1,193.8,0.5,193.8,0.5"/>
</g>
<g>
	<path class="st2" d="M2274.5,40.6l112.4,0.4c0,0-101.9-241.7-47.6-307.2c44.7-54,109.6,52.8,132.5,117.1l7.7-4.5
		c0,0,19.7-49.5,28-83.4c27.1-57,59.1-70.7,72.7-95.3c3.4-6.2,6.5-27.3,18.6-17.4c0,0-19.6,18.6-25.3-6.7c-5.6-25.3,23.2-7.8-4.5,3
		c-27.7,10.8-43-47.2-16-70.9c0,0,29.7,84,12.1,60c-17.6-24-21.7-74.5,1.4-64.6c23.1,9.9,14.5,73.5,12.9,50
		c-1.6-23.6-18-45.8,4.2-60.8c28.3-19.1,47-18.8,72.4-11.8c20.5,5.6,39.5-1.2,31.8,36c0,0-3.1-7.2-21.2-18.6l-15.7,1.8
		c0,0-13.6,5.8-7.4,12.4c6.2,6.6,14.2,12.8,14.2,12.8s-17.3,7.4-17.3,28.2c0,0-11.7-14.6-18.3-8.1c-6.6,6.6,7.8,42.6,15.7,28
		c0,0,1.5,30.8,14.4,29.7c12.9-1,29.3,0.1,31.6-4.3c2.3-4.4,3.2-36.2,3.2-36.2s10.2-4.7,10.7-6.6c0.5-1.8-11.7-14-11.7-14
		s0.5-9-0.3-13.4c-0.6-3.5-2.4-3.7-3.7,2.8c-2.1,10-1.5,23.2,0.6,23c2-0.2,3.1-10.9,3.1-10.9l-5.3-5.2l-61.8,2.1
		c0,0-21.9,6.2-16.2,14.9c5.6,8.6,22.6,8.8,18.1,18.3l-17.1,10c0,0,9.3,7.2,13.9,25.6c4.5,18.4,19.4,36.3,19.4,36.3
		s-8.9-22.2,3.3-34.9c10.4-10.1-0.2,5.4-0.2,21.9c0,19.2,0.7,20.3,9,40c0,0-13.5,17.5-32.8-2.4c-19.3-19.9-24.4-27.3-40.1-26.8
		c-15.7,0.5-29.5-14.4-3.9-12.6c25.6,1.9,36.7,41.2,39.4,67.1c2.7,25.9,5,40.3,8.5,73.5c3.5,33.3,11.5,12,32.6-8.1
		c0,0,18.2-19.4,5.3-72.9c0,0,7.4,9.8,10.4,27.6c3,17.8,2.5,25.9,2.5,25.9s26.9,10.5,48.1,9.7c21.2-0.8,21.3,0.3,40.8,1
		c17.6,0.7,28.5-4.2,36.7-5.2c7.5-1,15.4,8.2,22.4,16c8.5,9.4,23.1,21.6,17.3,22c-4.3,0.3-25.9-20.6-25.9-20.6s-22-10.8,0.1,3.3
		c8.6,5.4,12.1,7,9.7,9.2c-4,3.6-17-6.1-31.4-5.3c-23.5,1.3-51.3,2.5-72.1,4.7c-20.8,2.2-57.3-1.3-60.4-3.5
		c-3.2-2.2-31.1,33.1-31.1,33.1s18.2-10.5,53.6-14.9c10.7-1.3,17.9,0.5,44.7-6.5c26.8-7,49-15,69.7-11.6
		c20.7,3.4,31.9,9.9,30.3,15.6c-1.6,5.6-17.5-4.5-17.5-4.5l-15.5,0.4c0,0,16.5,0.8,19.4,5c2.9,4.2,5.2,10.7,2.2,12.9
		c-3,2.2-7.5-7.7-7.5-7.7l-22.9-3.1l19.8,4.5c0,0,9.8,6.5,6.8,10.3c-3,3.8-11.1-3.2-11.1-3.2l-15.5-1.8c0,0,15.2,4.6,19.8,6.4
		c4.6,1.8,10.6,5.6,5.4,8.6c-5.1,3-20.7-4.6-20.7-4.6s-23-1.6-29.8-4.6c-6.8-3-15.8,0.2-15.8,0.2S2631.5-75,2607.5-88.2
		c-24-13.3-48.5-91.9-55.4-124.8c-6.9-32.9-23.8-71.1-26-23.3c-2.2,47.8,27.1,45.9,27.1,45.9l-40.7-33.7c0,0,4.6,42.6,42.2,60.3
		c0,0-18.8,6.3,5,19c0,0-43.6-18.1,0,20.6c0,0,9.5,3.2,10.8,21.9c0,0,11.4,12.5,21.9,14.7c0,0-2.9,16.7-30,7.3
		c-27-9.4-27,8.9-44.4,6.6c-17.4-2.3-49.2-7.3-49.2-7.3s7.7-34.3,9.9-59.5c0,0-26.2,59.9-22.4,82.9c2.6,15.9,28.8-0.3,80.3-4
		c51.6-3.7,93.8,9.1,77.6,11.4c-16.2,2.3-103.8,4.1-103.8,4.1s-19.9,2.5-41.2,10.3c0,0,129.5,42.5,162.1-7.4
		c13.1-20-16.4-24.4,31.3-19.6c47.7,4.8,87.9,20.9,99.7,31.1c11.8,10.2,5.1,74,5.1,74l21.8,0.1l-20.3-99.8l-58.9-29.2l-7.6-14
		l308.5,3.9l1.6-8.7l-174.1-11.8l32.3-35.3l107.7,6.2l-17.8,3.6c0,0-19.5,17.1-22.9,20.4c0,0,3.1,4.5,15-6.2
		c11.9-10.7,11.5-8.7,11.5-8.7s-21.7,16.3-20.1,18.1c1.6,1.8,8.1,1.6,12.4-2.5c4.3-4.1,16.6-13.6,16.6-13.6s-23.4,18-21.2,19.5
		c3.3,1.7,8.8-1.4,15-6.3c6.2-4.9,9.7-7.9,9.7-7.9s24.7-50.5,29.3-49c4.5,1.5-19.3,39.8-28.3,48.2c0,0-17.9,15-17.2,15.8
		c1,1.1,7.7,2.3,13.6-3c5.9-5.3,14.1-11.3,14.1-11.3s17.4,4.5,25.4-10.9c3.2-6.1-17.3-7-17.3-7s1-2.1,18.8-7.3
		c17.8-5.2,20.7-17.9,29.5-23.2c0,0,31.1-0.6,23.5,30.6c0,0,16.2-3.6,4.9-24.3c-11.3-20.7-27.7-10.7-27.7-10.7s-7.4-17.4-0.8-63.2
		c0,0-13.4-33.2-16.4-58.1c0,0-15.2-9.7-3.5-27.4c11.7-17.6,12.4-6,17.9-13.6c4.1-5.6-13.4-2.9-24.3-2.2c-3.9,0.3-7.2-2.7-7.4-6.6
		c-0.1-2.6-0.1-5.7,0.2-9.3l-2-2.1c-1.6-1.7-1.6-4.3,0.1-5.9l2.8-2.7c0,0-1.5-0.8-4.6-2.2c-2.3-1-3.4-2.7-2.9-5.1l1.4-4.2
		c0,0-12.9-4.7-11.6-6.5c3.2-4.5,9.7-11.8,11.4-19.6c0,0-0.8-1.5-4.8-9.8c0,0-2.9-13,2.1-19.5c0,0-11.3,9.8-7.4,26.6
		c0,0-18.1-37.2,22.4-52c0,0,39.3-45.2,79.6-4.4c0,0,13.6,3.5,18,34.5c0,0-13,0.5,14.3,20.8c0,0,29.8,17.3-0.5,23.8
		c-30.2,6.5-6.4-10.5,3.1-34.7c9.5-24.2-31-26.3-11.8-10.5c19.2,15.7,18.3-2.2,27.8,13.5c9.5,15.7-8.7,53-37.1,35.1
		c-28.4-17.9,17.9-56.6,8.4-28.1c-9.5,28.5-18.6,36.2-25.3,35.7c-6.7-0.4-16.7-15.9-16.7-15.9s7.5-26.6-9.1-28.7
		c-16.7-2.2-10.8,20-10.8,20s-9.2-5.9-17-8.6c-7.8-2.7-19.9-18.4-29.7-28.2c0,0-2.3,6.3,0.5,12.2c2.8,5.9,0.6,8.8,13.2,13.8
		c12.7,4.9,10.7,11.4,20,12.9c9.3,1.6,17.9,6.9,18.8,14.3c0.9,7.4-3.5,28.3-3.5,28.3l-7.8,7l14.3,14l9.8,28.4l-0.1,0
		c0,0-10.1-2.8-10.9,20.9c-0.8,23.7,1.1,36.9,1.8,39.9c0.8,3,12.7,64.9,12.7,64.9s1.1-97.4,16-127.2c0,0,1.7-36.2,11.2-53.8
		c0,0,14.3,18.2,27.8,20.2c13.5,2,41.5-0.4,44.4,21.9c2.9,22.3-2.6,12.3,10.1,39.9c12.7,27.7,25.7,94,25.7,94s7.7,22-2.3,37.6
		c-10,15.6-44.6,39.6-92.6,37.8c-36.3-2.5-49.8,1.7-49.8,1.7l-19.7,7.1c0,0-19.7,13.9-30.4,14.4c0,0-1.9-2.7,10-10.5
		c7-4.6,18.6-13.1,18.6-13.1s-9.1-0.7-17,1.6c-7.9,2.3-33.8,6.9-36.9,5.7c-3.1-1.2,20.9-10.9,31.9-14.5c0,0-40.4,17.4-42.5,10.3
		c-1.2-4.2,38.9-16.9,38.9-16.9s-45.7,18.4-48,14.2c-2.3-4.2,57.2-28.7,57.2-28.7s8.9,4.8,23,4.7c14.2-0.1,30.8-3.5,50.3-7.1
		c19.5-3.6,24.1-9.2,36.8-7.3c15.6,3.9-11.4,42.1-41.7,54.7c-30.3,12.6-98.2,43.6-112.5,65.3c-9.3,14.4,9,75.8,9,75.8l31.8,0.1
		c0,0-11.8-56.4,0.8-67c12.7-10.6,59.2-33.9,59.2-33.9s-80-19.2-10.7-10c44.1,6.2,80.3,65.7,80.3,65.7s-1.7,3.4-65,17
		c-4.5,16-4.1,53.9,5.2,6.3c0,0,49.2-15.5,95.7-18.2c46.6-2.7,62.6-19.9,70.3-35.1c16-31.4-8.3-67.1-30-87.7
		c0,0,77.9,50.8,85.4,31.8c7.5-18.9,107.8-257.1,33.6-261.2c-74.2-4-73,8.2-83.8,29c-11.4,21.9-85.5,180.7,10.4,212
		c14.5,4.7,30.2,17.4,50.5-34c0,0,51.6-14.5,39.9,22.9c-11.7,37.4-25.1,63.9-25.1,63.9s-221.2-26.2-159.3,6
		c43,22.4,147,11.3,147,11.3l0.1,17.9l-72.7,11.4c0,0-60.8,46.6-56.5,52.5c22.9,0.1,232.7,0.6,232.7,0.6"/>
</g>
</svg>
