<?xml version="1.0" encoding="utf-8"?>
<!-- Generator: Adobe Illustrator 25.0.1, SVG Export Plug-In . SVG Version: 6.00 Build 0)  -->
<svg version="1.1" id="Layer_1" xmlns="http://www.w3.org/2000/svg" xmlns:xlink="http://www.w3.org/1999/xlink" x="0px" y="0px"
	 viewBox="0 0 1920 808" style="enable-background:new 0 0 1920 808;" xml:space="preserve">
<style type="text/css">
	.st0{fill:#416E96;}
	.st1{fill:#FFFFFF;}
	.st2{fill:#1977CC;}
	.st3{fill:none;stroke:#FFFFFF;stroke-width:4.0206;stroke-linecap:round;stroke-linejoin:round;}
	.st4{fill:none;stroke:#070D37;stroke-width:4.0206;stroke-linecap:round;stroke-linejoin:round;}
</style>
<rect x="2332" y="-1355.6" class="st0" width="1920" height="808"/>
<rect x="-942.6" y="1299.3" class="st1" width="1920" height="808"/>
<rect class="st2" width="1920" height="808"/>
<image style="overflow:visible;" width="1920" height="808" xlink:href="hero-bg.jpg"  transform="matrix(1 0 0 1 2000.2252 1389.4695)">
</image>
<g>
	<path class="st3" d="M900.8,637.8l97.5,0.3c0,0-88.4-209.6-41.3-266.4c38.8-46.8,95.1,45.8,114.9,101.5l6.7-3.9
		c0,0,17.1-42.9,24.3-72.4c23.5-49.4,51.3-61.3,63.1-82.6c3-5.4,5.7-23.6,16.2-15.1c0,0-17,16.2-21.9-5.8
		c-4.9-21.9,20.1-6.7-3.9,2.6c-24.1,9.3-37.3-40.9-13.9-61.4c0,0,25.8,72.8,10.5,52c-15.3-20.8-18.8-64.6,1.2-56
		c20.1,8.6,12.6,63.8,11.2,43.3c-1.4-20.5-15.6-39.7,3.7-52.7c24.5-16.5,40.7-16.3,62.8-10.2c17.7,4.9,34.2-1,27.5,31.2
		c0,0-2.7-6.3-18.4-16.1l-13.7,1.6c0,0-11.8,5-6.4,10.7c5.4,5.7,12.4,11.1,12.4,11.1s-15,6.4-15,24.4c0,0-10.1-12.7-15.9-7
		c-5.7,5.7,6.8,36.9,13.7,24.3c0,0,1.3,26.7,12.4,25.8c11.2-0.9,25.4,0.1,27.4-3.8c2-3.8,2.8-31.4,2.8-31.4s8.8-4.1,9.3-5.7
		c0.5-1.6-10.1-12.2-10.1-12.2s0.4-7.8-0.3-11.6c-0.6-3-2.1-3.2-3.2,2.4c-1.8,8.7-1.3,20.2,0.5,20c1.8-0.2,2.7-9.5,2.7-9.5l-4.6-4.5
		l-53.6,1.8c0,0-18.9,5.4-14.1,12.9c4.9,7.5,19.6,7.7,15.7,15.9l-14.8,8.6c0,0,8.1,6.3,12,22.2c3.9,16,16.8,31.4,16.8,31.4
		s-7.7-19.3,2.9-30.3c9-8.8-0.2,4.7-0.2,19c0,16.7,0.6,17.6,7.8,34.7c0,0-11.7,15.2-28.5-2.1c-16.8-17.3-21.1-23.6-34.8-23.2
		c-13.6,0.4-25.6-12.5-3.4-10.9c22.2,1.6,31.8,35.7,34.1,58.2c2.3,22.5,4.3,34.9,7.4,63.8c3.1,28.8,9.9,10.4,28.3-7
		c0,0,15.8-16.8,4.6-63.2c0,0,6.4,8.5,9,23.9c2.6,15.4,2.2,22.5,2.2,22.5s23.3,9.1,41.7,8.4c18.4-0.7,18.4,0.2,35.4,0.9
		c15.3,0.6,24.7-3.6,31.9-4.5c6.5-0.8,13.3,7.1,19.4,13.9c7.3,8.1,20,18.7,15,19.1c-3.7,0.3-22.5-17.9-22.5-17.9s-19.1-9.4,0.1,2.8
		c7.4,4.7,10.5,6.1,8.4,8c-3.5,3.1-14.8-5.3-27.2-4.6c-20.4,1.1-44.5,2.2-62.5,4.1c-18,1.9-49.6-1.1-52.4-3
		c-2.7-1.9-26.9,28.7-26.9,28.7s15.8-9.1,46.5-12.9c9.3-1.2,15.5,0.5,38.7-5.6c23.2-6.1,42.5-13,60.4-10.1
		c17.9,2.9,27.6,8.6,26.3,13.5c-1.4,4.9-15.2-3.9-15.2-3.9l-13.4,0.3c0,0,14.3,0.7,16.8,4.3c2.5,3.6,4.5,9.3,1.9,11.2
		c-2.6,1.9-6.5-6.7-6.5-6.7l-19.9-2.7l17.1,3.9c0,0,8.5,5.6,5.9,8.9c-2.6,3.3-9.6-2.7-9.6-2.7l-13.4-1.6c0,0,13.2,4,17.2,5.5
		c4,1.6,9.2,4.8,4.7,7.5c-4.4,2.6-18-4-18-4s-19.9-1.4-25.8-4c-5.9-2.6-13.7,0.2-13.7,0.2s-94.4,41.8-115.2,30.2
		c-20.8-11.5-42-79.7-48-108.2c-6-28.6-20.6-61.7-22.5-20.2c-1.9,41.5,23.5,39.8,23.5,39.8l-35.3-29.2c0,0,4,36.9,36.6,52.3
		c0,0-16.3,5.5,4.4,16.5c0,0-37.8-15.7,0,17.9c0,0,8.2,2.8,9.4,19c0,0,9.9,10.9,19,12.8c0,0-2.6,14.5-26,6.3
		c-23.4-8.2-23.4,7.7-38.5,5.7c-15.1-2-42.7-6.3-42.7-6.3s6.7-29.8,8.6-51.6c0,0-22.7,51.9-19.5,71.9c2.2,13.8,24.9-0.2,69.6-3.4
		c44.7-3.2,81.3,7.9,67.3,9.9c-14,2-90,3.5-90,3.5s-17.2,2.1-35.7,8.9c0,0,112.3,36.8,140.5-6.4c11.3-17.4-14.2-21.2,27.1-17
		c41.3,4.2,76.2,18.1,86.4,27c10.2,8.9,4.4,64.2,4.4,64.2l18.9,0.1l-17.6-86.5l-51.1-25.3l-6.6-12.1l267.5,3.4l1.4-7.6l-151-10.2
		l28-30.6l93.4,5.3l-15.4,3.2c0,0-16.9,14.8-19.9,17.7c0,0,2.7,3.9,13-5.4c10.3-9.3,10-7.5,10-7.5s-18.9,14.1-17.4,15.7
		c1.4,1.6,7,1.4,10.8-2.1c3.7-3.5,14.4-11.8,14.4-11.8s-20.3,15.6-18.3,16.9c2.9,1.4,7.6-1.2,13-5.5c5.4-4.3,8.4-6.8,8.4-6.8
		s21.5-43.8,25.4-42.5c3.9,1.3-16.7,34.5-24.5,41.8c0,0-15.6,13-15,13.7c0.9,0.9,6.7,2,11.8-2.6c5.1-4.6,12.2-9.8,12.2-9.8
		s15,3.9,22-9.5c2.7-5.3-15-6-15-6s0.9-1.8,16.3-6.3c15.4-4.5,18-15.5,25.5-20.1c0,0,26.9-0.6,20.4,26.5c0,0,14.1-3.1,4.3-21
		c-9.8-18-24-9.3-24-9.3s-6.4-15.1-0.7-54.8c0,0-11.6-28.8-14.2-50.4c0,0-13.2-8.4-3-23.7c10.2-15.3,10.7-5.2,15.5-11.8
		c3.5-4.9-11.7-2.5-21.1-1.9c-3.3,0.2-6.3-2.4-6.4-5.7c-0.1-2.2-0.1-4.9,0.2-8.1l-1.7-1.8c-1.4-1.4-1.3-3.7,0.1-5.1l2.4-2.3
		c0,0-1.3-0.7-4-1.9c-2-0.9-2.9-2.3-2.5-4.4l1.2-3.6c0,0-11.2-4.1-10-5.6c2.8-3.9,8.4-10.2,9.9-17c0,0-0.7-1.3-4.1-8.5
		c0,0-2.5-11.3,1.9-17c0,0-9.8,8.5-6.4,23c0,0-15.7-32.3,19.5-45.1c0,0,34-39.2,69-3.8c0,0,11.8,3,15.6,29.9c0,0-11.3,0.5,12.4,18
		c0,0,25.8,15-0.4,20.6c-26.2,5.6-5.6-9.1,2.7-30.1c8.2-21-26.9-22.8-10.3-9.1c16.7,13.6,15.9-1.9,24.1,11.7
		c8.2,13.6-7.5,46-32.2,30.5c-24.6-15.5,15.5-49.1,7.3-24.4c-8.2,24.7-16.1,31.4-21.9,31c-5.8-0.4-14.5-13.8-14.5-13.8
		s6.5-23-7.9-24.9c-14.5-1.9-9.3,17.3-9.3,17.3s-8-5.1-14.7-7.5c-6.8-2.3-17.3-16-25.7-24.5c0,0-2,5.5,0.4,10.6
		c2.4,5.1,0.5,7.6,11.5,11.9c11,4.3,9.3,9.9,17.4,11.2c8.1,1.4,15.5,6,16.3,12.4c0.7,6.4-3,24.5-3,24.5l-6.7,6l12.4,12.2l8.5,24.7
		l-0.1,0c0,0-8.7-2.4-9.4,18.1c-0.7,20.5,0.9,32,1.6,34.6c0.7,2.6,11,56.3,11,56.3s0.9-84.4,13.9-110.3c0,0,1.5-31.4,9.7-46.7
		c0,0,12.4,15.8,24.1,17.6c11.7,1.7,36-0.3,38.5,19c2.5,19.3-2.2,10.6,8.8,34.6c11,24,22.3,81.5,22.3,81.5s6.7,19.1-2,32.6
		c-8.7,13.5-38.7,34.4-80.3,32.7c-31.5-2.1-43.2,1.5-43.2,1.5l-17.1,6.2c0,0-17.1,12-26.4,12.5c0,0-1.7-2.3,8.7-9.1
		c6-4,16.1-11.3,16.1-11.3s-7.9-0.6-14.8,1.4c-6.9,2-29.3,6-32,4.9c-2.7-1.1,18.1-9.4,27.7-12.6c0,0-35.1,15.1-36.9,8.9
		c-1.1-3.6,33.7-14.7,33.7-14.7s-39.6,15.9-41.6,12.3c-2-3.6,49.6-24.9,49.6-24.9s7.7,4.2,20,4.1c12.3-0.1,26.7-3.1,43.6-6.2
		c16.9-3.1,20.9-8,31.9-6.3c13.5,3.3-9.8,36.5-36.2,47.4c-26.3,10.9-85.1,37.8-97.5,56.6c-8.1,12.5,7.8,65.7,7.8,65.7l27.6,0.1
		c0,0-10.3-48.9,0.7-58.1c11-9.2,51.4-29.4,51.4-29.4s-69.3-16.7-9.3-8.7c38.3,5.4,69.6,57,69.6,57s-1.5,3-56.3,14.7
		c-3.9,13.9-3.6,46.7,4.5,5.4c0,0,42.6-13.4,83-15.8c40.4-2.3,54.3-17.2,61-30.5c13.8-27.2-7.2-58.2-26.1-76c0,0,67.6,44,74.1,27.6
		c6.5-16.4,93.5-223,29.1-226.5c-64.4-3.5-63.3,7.1-72.7,25.1c-9.9,19-74.1,156.7,9,183.8c12.6,4.1,26.2,15.1,43.7-29.5
		c0,0,44.7-12.5,34.6,19.9c-10.2,32.4-21.7,55.4-21.7,55.4s-191.8-22.8-138.1,5.2c37.3,19.4,127.5,9.8,127.5,9.8l0.1,15.5l-63,9.9
		c0,0-52.7,40.4-49,45.6c19.9,0.1,201.7,0.6,201.7,0.6"/>
</g>
<g>
	<path class="st4" d="M2904.5,141.5l112.4,0.4c0,0-101.9-241.7-47.6-307.2c44.7-54,109.6,52.8,132.5,117.1l7.7-4.5
		c0,0,19.7-49.5,28-83.4c27.1-57,59.1-70.7,72.7-95.3c3.4-6.2,6.5-27.3,18.6-17.4c0,0-19.6,18.6-25.3-6.7c-5.6-25.3,23.2-7.8-4.5,3
		c-27.7,10.8-43-47.2-16-70.9c0,0,29.7,84,12.1,60c-17.6-24-21.7-74.5,1.4-64.6c23.1,9.9,14.5,73.5,12.9,50
		c-1.6-23.6-18-45.8,4.2-60.8c28.3-19.1,47-18.8,72.4-11.8c20.5,5.6,39.5-1.2,31.8,36c0,0-3.1-7.2-21.2-18.6l-15.7,1.8
		c0,0-13.6,5.8-7.4,12.4c6.2,6.6,14.2,12.8,14.2,12.8s-17.3,7.4-17.3,28.2c0,0-11.7-14.6-18.3-8.1c-6.6,6.6,7.8,42.6,15.7,28
		c0,0,1.5,30.8,14.4,29.7c12.9-1,29.3,0.1,31.6-4.3c2.3-4.4,3.2-36.2,3.2-36.2s10.2-4.7,10.7-6.6c0.5-1.8-11.7-14-11.7-14
		s0.5-9-0.3-13.4c-0.6-3.5-2.4-3.7-3.7,2.8c-2.1,10-1.5,23.2,0.6,23c2-0.2,3.1-10.9,3.1-10.9l-5.3-5.2l-61.8,2.1
		c0,0-21.9,6.2-16.2,14.9c5.6,8.6,22.6,8.8,18.1,18.3l-17.1,10c0,0,9.3,7.2,13.9,25.6c4.5,18.4,19.4,36.3,19.4,36.3
		s-8.9-22.2,3.3-34.9c10.4-10.1-0.2,5.4-0.2,21.9c0,19.2,0.7,20.3,9,40c0,0-13.5,17.5-32.8-2.4c-19.3-19.9-24.4-27.3-40.1-26.8
		c-15.7,0.5-29.5-14.4-3.9-12.6c25.6,1.9,36.7,41.2,39.4,67.1c2.7,25.9,5,40.3,8.5,73.5c3.5,33.3,11.5,12,32.6-8.1
		c0,0,18.2-19.4,5.3-72.9c0,0,7.4,9.8,10.4,27.6c3,17.8,2.5,25.9,2.5,25.9s26.9,10.5,48.1,9.7c21.2-0.8,21.3,0.3,40.8,1
		c17.6,0.7,28.5-4.2,36.7-5.2c7.5-1,15.4,8.2,22.4,16c8.5,9.4,23.1,21.6,17.3,22c-4.3,0.3-25.9-20.6-25.9-20.6s-22-10.8,0.1,3.3
		c8.6,5.4,12.1,7,9.7,9.2c-4,3.6-17-6.1-31.4-5.3c-23.5,1.3-51.3,2.5-72.1,4.7c-20.8,2.2-57.3-1.3-60.4-3.5
		c-3.2-2.2-31.1,33.1-31.1,33.1s18.2-10.5,53.6-14.9c10.7-1.3,17.9,0.5,44.7-6.5c26.8-7,49-15,69.7-11.6
		c20.7,3.4,31.9,9.9,30.3,15.6c-1.6,5.6-17.5-4.5-17.5-4.5l-15.5,0.4c0,0,16.5,0.8,19.4,5c2.9,4.2,5.2,10.7,2.2,12.9
		c-3,2.2-7.5-7.7-7.5-7.7l-22.9-3.1l19.8,4.5c0,0,9.8,6.5,6.8,10.3c-3,3.8-11.1-3.2-11.1-3.2l-15.5-1.8c0,0,15.2,4.6,19.8,6.4
		c4.6,1.8,10.6,5.6,5.4,8.6c-5.1,3-20.7-4.6-20.7-4.6s-23-1.6-29.8-4.6c-6.8-3-15.8,0.2-15.8,0.2s-108.9,48.2-132.9,34.9
		c-24-13.3-48.5-91.9-55.4-124.8c-6.9-32.9-23.8-71.1-26-23.3c-2.2,47.8,27.1,45.9,27.1,45.9l-40.7-33.7c0,0,4.6,42.6,42.2,60.3
		c0,0-18.8,6.3,5,19c0,0-43.6-18.1,0,20.6c0,0,9.5,3.2,10.8,21.9c0,0,11.4,12.5,21.9,14.7c0,0-2.9,16.7-30,7.3
		c-27-9.4-27,8.9-44.4,6.6c-17.4-2.3-49.2-7.3-49.2-7.3s7.7-34.3,9.9-59.5c0,0-26.2,59.9-22.4,82.9c2.6,15.9,28.8-0.3,80.3-4
		c51.6-3.7,93.8,9.1,77.6,11.4c-16.2,2.3-103.8,4.1-103.8,4.1s-19.9,2.5-41.2,10.3c0,0,129.5,42.5,162.1-7.4
		c13.1-20-16.4-24.4,31.3-19.6c47.7,4.8,87.9,20.9,99.7,31.1c11.8,10.2,5.1,74,5.1,74l21.8,0.1L3399,43.4l-58.9-29.2l-7.6-14
		L3641,4.2l1.6-8.7l-174.1-11.8l32.3-35.3l107.7,6.2l-17.8,3.6c0,0-19.5,17.1-22.9,20.4c0,0,3.1,4.5,15-6.2
		c11.9-10.7,11.5-8.7,11.5-8.7s-21.7,16.3-20.1,18.1c1.6,1.8,8.1,1.6,12.4-2.5c4.3-4.1,16.6-13.6,16.6-13.6s-23.4,18-21.2,19.5
		c3.3,1.7,8.8-1.4,15-6.3c6.2-4.9,9.7-7.9,9.7-7.9s24.7-50.5,29.3-49c4.5,1.5-19.3,39.8-28.3,48.2c0,0-17.9,15-17.2,15.8
		c1,1.1,7.7,2.3,13.6-3c5.9-5.3,14.1-11.3,14.1-11.3s17.4,4.5,25.4-10.9c3.2-6.1-17.3-7-17.3-7s1-2.1,18.8-7.3
		c17.8-5.2,20.7-17.9,29.5-23.2c0,0,31.1-0.6,23.5,30.6c0,0,16.2-3.6,4.9-24.3c-11.3-20.7-27.7-10.7-27.7-10.7s-7.4-17.4-0.8-63.2
		c0,0-13.4-33.2-16.4-58.1c0,0-15.2-9.7-3.5-27.4c11.7-17.6,12.4-6,17.9-13.6c4.1-5.6-13.4-2.9-24.3-2.2c-3.9,0.3-7.2-2.7-7.4-6.6
		c-0.1-2.6-0.1-5.7,0.2-9.3l-2-2.1c-1.6-1.7-1.6-4.3,0.1-5.9l2.8-2.7c0,0-1.5-0.8-4.6-2.2c-2.3-1-3.4-2.7-2.9-5.1l1.4-4.2
		c0,0-12.9-4.7-11.6-6.5c3.2-4.5,9.7-11.8,11.4-19.6c0,0-0.8-1.5-4.8-9.8c0,0-2.9-13,2.1-19.5c0,0-11.3,9.8-7.4,26.6
		c0,0-18.1-37.2,22.4-52c0,0,39.3-45.2,79.6-4.4c0,0,13.6,3.5,18,34.5c0,0-13,0.5,14.3,20.8c0,0,29.8,17.3-0.5,23.8
		c-30.2,6.5-6.4-10.5,3.1-34.7c9.5-24.2-31-26.3-11.8-10.5c19.2,15.7,18.3-2.2,27.8,13.5c9.5,15.7-8.7,53-37.1,35.1
		c-28.4-17.9,17.9-56.6,8.4-28.1c-9.5,28.5-18.6,36.2-25.3,35.7c-6.7-0.4-16.7-15.9-16.7-15.9s7.5-26.6-9.1-28.7
		c-16.7-2.2-10.8,20-10.8,20s-9.2-5.9-17-8.6c-7.8-2.7-19.9-18.4-29.7-28.2c0,0-2.3,6.3,0.5,12.2c2.8,5.9,0.6,8.8,13.2,13.8
		c12.7,4.9,10.7,11.4,20,12.9c9.3,1.6,17.9,6.9,18.8,14.3c0.9,7.4-3.5,28.3-3.5,28.3l-7.8,7l14.3,14l9.8,28.4l-0.1,0
		c0,0-10.1-2.8-10.9,20.9c-0.8,23.7,1.1,36.9,1.8,39.9c0.8,3,12.7,64.9,12.7,64.9s1.1-97.4,16-127.2c0,0,1.7-36.2,11.2-53.8
		c0,0,14.3,18.2,27.8,20.2c13.5,2,41.5-0.4,44.4,21.9c2.9,22.3-2.6,12.3,10.1,39.9c12.7,27.7,25.7,94,25.7,94s7.7,22-2.3,37.6
		c-10,15.6-44.6,39.6-92.6,37.8c-36.3-2.5-49.8,1.7-49.8,1.7l-19.7,7.1c0,0-19.7,13.9-30.4,14.4c0,0-1.9-2.7,10-10.5
		c7-4.6,18.6-13.1,18.6-13.1s-9.1-0.7-17,1.6c-7.9,2.3-33.8,6.9-36.9,5.7c-3.1-1.2,20.9-10.9,31.9-14.5c0,0-40.4,17.4-42.5,10.3
		c-1.2-4.2,38.9-16.9,38.9-16.9s-45.7,18.4-48,14.2c-2.3-4.2,57.2-28.7,57.2-28.7s8.9,4.8,23,4.7c14.2-0.1,30.8-3.5,50.3-7.1
		c19.5-3.6,24.1-9.2,36.8-7.3c15.6,3.9-11.4,42.1-41.7,54.7c-30.3,12.6-98.2,43.6-112.5,65.3c-9.3,14.4,9,75.8,9,75.8l31.8,0.1
		c0,0-11.8-56.4,0.8-67c12.7-10.6,59.2-33.9,59.2-33.9s-80-19.2-10.7-10c44.1,6.2,80.3,65.7,80.3,65.7s-1.7,3.4-65,17
		c-4.5,16-4.1,53.9,5.2,6.3c0,0,49.2-15.5,95.7-18.2c46.6-2.7,62.6-19.9,70.3-35.1c16-31.4-8.3-67.1-30-87.7
		c0,0,77.9,50.8,85.4,31.8c7.5-18.9,107.8-257.1,33.6-261.2c-74.2-4-73,8.2-83.8,29c-11.4,21.9-85.5,180.7,10.4,212
		c14.5,4.7,30.2,17.4,50.5-34c0,0,51.6-14.5,39.9,22.9c-11.7,37.4-25.1,63.9-25.1,63.9s-221.2-26.2-159.3,6
		c43,22.4,147,11.3,147,11.3l0.1,17.9l-72.7,11.4c0,0-60.8,46.6-56.5,52.5c22.9,0.1,232.7,0.6,232.7,0.6"/>
</g>
</svg>
