<?xml version="1.0" encoding="utf-8"?>
<!-- Generator: Adobe Illustrator 25.0.1, SVG Export Plug-In . SVG Version: 6.00 Build 0)  -->
<svg version="1.1" id="Layer_1" xmlns="http://www.w3.org/2000/svg" xmlns:xlink="http://www.w3.org/1999/xlink" x="0px" y="0px"
	 viewBox="0 0 1920 808" style="enable-background:new 0 0 1920 808;" xml:space="preserve">
<style type="text/css">
	.st0{fill:#1977CC;}
	.st1{fill:#FFFFFF;}
	.st2{fill:none;stroke:#FFFFFF;stroke-width:4.0206;stroke-linecap:round;stroke-linejoin:round;}
	.st3{fill:none;stroke:#070D37;stroke-width:4.0206;stroke-linecap:round;stroke-linejoin:round;}
</style>
<rect class="st0" width="1920" height="808"/>
<rect x="-942.6" y="1299.3" class="st1" width="1920" height="808"/>
<rect x="80.2" y="-1626" class="st0" width="1920" height="808"/>
<image style="overflow:visible;enable-background:new    ;" width="1920" height="808" xlink:href="hero-bg.jpg"  transform="matrix(1 0 0 1 2000.2252 1389.4695)">
</image>
<g>
	<path class="st2" d="M1097.4,634.2l79.6,0.3c0,0-72.1-171.1-33.7-217.4c31.6-38.2,77.6,37.4,93.8,82.8l5.5-3.2c0,0,14-35,19.8-59.1
		c19.2-40.4,41.9-50,51.5-67.4c2.4-4.4,4.6-19.3,13.2-12.3c0,0-13.9,13.2-17.9-4.7c-4-17.9,16.4-5.5-3.2,2.1s-30.4-33.4-11.3-50.2
		c0,0,21,59.5,8.6,42.5c-12.5-17-15.4-52.7,1-45.7s10.3,52.1,9.1,35.4c-1.2-16.7-12.8-32.4,3-43c20-13.5,33.2-13.3,51.3-8.4
		c14.5,4,27.9-0.8,22.5,25.5c0,0-2.2-5.1-15-13.2l-11.1,1.3c0,0-9.6,4.1-5.3,8.8c4.4,4.7,10.1,9.1,10.1,9.1s-12.2,5.2-12.3,19.9
		c0,0-8.2-10.4-12.9-5.7c-4.7,4.6,5.5,30.1,11.1,19.8c0,0,1,21.8,10.2,21c9.1-0.7,20.7,0,22.4-3.1c1.7-3.1,2.3-25.7,2.3-25.7
		s7.2-3.4,7.6-4.6c0.4-1.3-8.3-9.9-8.3-9.9s0.4-6.4-0.2-9.5c-0.5-2.5-1.7-2.6-2.6,2c-1.5,7.1-1,16.5,0.4,16.3s2.2-7.7,2.2-7.7
		l-3.7-3.7l-43.7,1.5c0,0-15.5,4.4-11.5,10.5s16,6.2,12.8,13l-12.1,7.1c0,0,6.6,5.1,9.8,18.1c3.2,13,13.7,25.7,13.7,25.7
		s-6.3-15.7,2.4-24.7c7.3-7.2-0.2,3.8-0.2,15.5c0,13.6,0.5,14.4,6.3,28.3c0,0-9.6,12.4-23.2-1.7c-13.7-14.1-17.2-19.3-28.4-19
		c-11.1,0.3-20.9-10.2-2.8-8.9c18.1,1.3,26,29.2,27.9,47.5s3.5,28.5,6,52c2.5,23.5,8.1,8.5,23.1-5.8c0,0,12.9-13.7,3.8-51.6
		c0,0,5.2,6.9,7.3,19.5c2.1,12.6,1.8,18.4,1.8,18.4s19,7.4,34,6.9c15-0.6,15.1,0.2,28.9,0.7c12.5,0.5,20.2-3,26-3.7
		c5.3-0.7,10.9,5.8,15.8,11.3c6,6.6,16.3,15.3,12.3,15.6c-3,0.2-18.3-14.6-18.3-14.6s-15.6-7.6,0.1,2.3c6.1,3.9,8.6,5,6.9,6.5
		c-2.8,2.5-12-4.3-22.2-3.8c-16.6,0.9-36.3,1.8-51,3.4s-40.5-0.9-42.8-2.5c-2.2-1.5-22,23.4-22,23.4s12.9-7.4,38-10.5
		c7.6-0.9,12.7,0.4,31.6-4.6c19-5,34.7-10.6,49.3-8.2c14.6,2.4,22.6,7,21.5,11s-12.4-3.2-12.4-3.2l-11,0.3c0,0,11.7,0.6,13.7,3.5
		c2,3,3.7,7.6,1.6,9.1s-5.3-5.4-5.3-5.4l-16.2-2.2l14,3.2c0,0,6.9,4.6,4.8,7.3s-7.9-2.2-7.9-2.2l-11-1.3c0,0,10.8,3.3,14,4.5
		c3.3,1.3,7.5,3.9,3.8,6.1c-3.6,2.2-14.7-3.3-14.7-3.3s-16.3-1.2-21.1-3.3c-4.8-2.1-11.2,0.1-11.2,0.1s-77.1,34.1-94,24.7
		c-17-9.4-34.3-65-39.2-88.3c-4.9-23.3-16.8-50.3-18.4-16.5s19.2,32.5,19.2,32.5l-28.8-23.8c0,0,3.3,30.1,29.9,42.6
		c0,0-13.3,4.5,3.6,13.5c0,0-30.8-12.8,0,14.6c0,0,6.7,2.3,7.7,15.5c0,0,8.1,8.9,15.5,10.4c0,0-2.1,11.8-21.2,5.1
		s-19.1,6.3-31.4,4.7s-34.8-5.2-34.8-5.2s5.4-24.3,7-42.1c0,0-18.5,42.4-15.9,58.7c1.8,11.2,20.4-0.2,56.8-2.8
		c36.5-2.6,66.4,6.4,54.9,8.1c-11.5,1.6-73.5,2.9-73.5,2.9s-14.1,1.7-29.1,7.3c0,0,91.6,30.1,114.7-5.2
		c9.3-14.2-11.6-17.3,22.1-13.9c33.7,3.4,62.2,14.8,70.5,22c8.4,7.2,3.6,52.4,3.6,52.4l15.4,0.1l-14.3-70.6l-41.7-20.7l-5.4-9.9
		l218.3,2.8l1.1-6.2l-123.2-8.4l22.8-25l76.2,4.4l-12.6,2.6c0,0-13.8,12.1-16.2,14.4c0,0,2.2,3.2,10.6-4.4c8.4-7.6,8.1-6.1,8.1-6.1
		s-15.4,11.5-14.2,12.8c1.2,1.3,5.7,1.1,8.8-1.7c3-2.9,11.7-9.7,11.7-9.7s-16.6,12.8-15,13.8c2.3,1.2,6.2-1,10.6-4.5
		s6.8-5.6,6.8-5.6s17.5-35.7,20.8-34.7c3.2,1.1-13.7,28.2-20,34.1c0,0-12.7,10.6-12.2,11.2c0.7,0.8,5.5,1.6,9.6-2.1
		c4.2-3.7,10-8,10-8s12.3,3.2,18-7.7c2.2-4.3-12.2-4.9-12.2-4.9s0.7-1.5,13.3-5.2c12.6-3.7,14.7-12.7,20.8-16.4
		c0,0,22-0.5,16.6,21.7c0,0,11.5-2.5,3.5-17.2s-19.6-7.6-19.6-7.6s-5.3-12.3-0.6-44.7c0,0-9.5-23.5-11.6-41.2c0,0-10.8-6.9-2.5-19.4
		s8.8-4.2,12.7-9.6c2.9-4-9.5-2.1-17.2-1.5c-2.7,0.2-5.1-1.9-5.2-4.7c-0.1-1.8-0.1-4,0.2-6.6l-1.4-1.5c-1.1-1.2-1.1-3,0.1-4.2l2-1.9
		c0,0-1.1-0.6-3.3-1.5c-1.6-0.7-2.4-1.9-2-3.6l1-2.9c0,0-9.1-3.3-8.2-4.6c2.3-3.2,6.9-8.4,8-13.9c0,0-0.6-1.1-3.4-6.9
		c0,0-2.1-9.2,1.5-13.8c0,0-8,6.9-5.2,18.8c0,0-12.8-26.3,15.9-36.8c0,0,27.8-32,56.3-3.1c0,0,9.6,2.5,12.8,24.4
		c0,0-9.2,0.4,10.1,14.7c0,0,21.1,12.3-0.3,16.8c-21.4,4.6-4.5-7.4,2.2-24.5s-22-18.6-8.4-7.5s13-1.5,19.7,9.6s-6.2,37.5-26.2,24.9
		c-20.1-12.6,12.6-40.1,5.9-19.9s-13.2,25.6-17.9,25.3c-4.7-0.3-11.8-11.2-11.8-11.2s5.3-18.8-6.5-20.3s-7.6,14.1-7.6,14.1
		s-6.5-4.2-12-6.1s-14.1-13-21-20c0,0-1.7,4.5,0.3,8.6c2,4.2,0.4,6.2,9.4,9.7s7.6,8,14.2,9.2c6.6,1.1,12.7,4.9,13.3,10.1
		c0.6,5.3-2.5,20-2.5,20l-5.5,4.9l10.2,9.9l6.9,20.1h-0.1c0,0-7.1-2-7.7,14.8s0.8,26.1,1.3,28.2s9,45.9,9,45.9s0.7-68.9,11.3-90.1
		c0,0,1.2-25.6,7.9-38.1c0,0,10.1,12.9,19.7,14.3c9.5,1.4,29.4-0.3,31.4,15.5c2.1,15.8-1.8,8.7,7.2,28.3c9,19.6,18.2,66.5,18.2,66.5
		s5.5,15.6-1.6,26.6s-31.6,28.1-65.6,26.7c-25.7-1.7-35.3,1.2-35.3,1.2l-13.9,5c0,0-13.9,9.8-21.5,10.2c0,0-1.4-1.9,7.1-7.4
		c4.9-3.2,13.2-9.2,13.2-9.2s-6.5-0.5-12.1,1.1s-23.9,4.9-26.1,4s14.8-7.7,22.6-10.3c0,0-28.6,12.3-30.1,7.3c-0.9-3,27.5-12,27.5-12
		s-32.3,13-34,10c-1.6-3,40.5-20.3,40.5-20.3s6.3,3.4,16.3,3.4c10-0.1,21.8-2.5,35.6-5c13.8-2.5,17-6.5,26.1-5.1
		c11,2.7-8,29.8-29.5,38.7s-69.5,30.9-79.6,46.2c-6.6,10.2,6.4,53.6,6.4,53.6l22.5,0.1c0,0-8.4-39.9,0.6-47.4s41.9-24,41.9-24
		s-56.6-13.6-7.6-7.1c31.2,4.4,56.8,46.5,56.8,46.5s-1.2,2.4-46,12c-3.2,11.3-2.9,38.1,3.7,4.4c0,0,34.8-11,67.8-12.9
		s44.3-14.1,49.8-24.9c11.3-22.2-5.8-47.5-21.3-62.1c0,0,55.2,35.9,60.5,22.5s76.3-182,23.7-184.9c-52.6-2.9-51.6,5.8-59.3,20.5
		c-8.1,15.5-60.5,127.9,7.4,150c10.3,3.4,21.4,12.3,35.7-24.1c0,0,36.5-10.2,28.2,16.2c-8.3,26.4-17.7,45.2-17.7,45.2
		s-156.6-18.6-112.7,4.2c30.4,15.8,104,8,104,8v12.7l-51.4,8c0,0-43.1,33-40,37.2c16.2,0.1,164.7,0.5,164.7,0.5"/>
</g>
<g>
	<path class="st3" d="M2274.5,40.6l112.4,0.4c0,0-101.9-241.7-47.6-307.2c44.7-54,109.6,52.8,132.5,117.1l7.7-4.5
		c0,0,19.7-49.5,28-83.4c27.1-57,59.1-70.7,72.7-95.3c3.4-6.2,6.5-27.3,18.6-17.4c0,0-19.6,18.6-25.3-6.7c-5.6-25.3,23.2-7.8-4.5,3
		s-43-47.2-16-70.9c0,0,29.7,84,12.1,60c-17.6-24-21.7-74.5,1.4-64.6c23.1,9.9,14.5,73.5,12.9,50c-1.6-23.6-18-45.8,4.2-60.8
		c28.3-19.1,47-18.8,72.4-11.8c20.5,5.6,39.5-1.2,31.8,36c0,0-3.1-7.2-21.2-18.6l-15.7,1.8c0,0-13.6,5.8-7.4,12.4
		c6.2,6.6,14.2,12.8,14.2,12.8s-17.3,7.4-17.3,28.2c0,0-11.7-14.6-18.3-8.1c-6.6,6.6,7.8,42.6,15.7,28c0,0,1.5,30.8,14.4,29.7
		c12.9-1,29.3,0.1,31.6-4.3s3.2-36.2,3.2-36.2s10.2-4.7,10.7-6.6c0.5-1.8-11.7-14-11.7-14s0.5-9-0.3-13.4c-0.6-3.5-2.4-3.7-3.7,2.8
		c-2.1,10-1.5,23.2,0.6,23c2-0.2,3.1-10.9,3.1-10.9l-5.3-5.2l-61.8,2.1c0,0-21.9,6.2-16.2,14.9c5.6,8.6,22.6,8.8,18.1,18.3l-17.1,10
		c0,0,9.3,7.2,13.9,25.6c4.5,18.4,19.4,36.3,19.4,36.3s-8.9-22.2,3.3-34.9c10.4-10.1-0.2,5.4-0.2,21.9c0,19.2,0.7,20.3,9,40
		c0,0-13.5,17.5-32.8-2.4s-24.4-27.3-40.1-26.8c-15.7,0.5-29.5-14.4-3.9-12.6c25.6,1.9,36.7,41.2,39.4,67.1s5,40.3,8.5,73.5
		c3.5,33.3,11.5,12,32.6-8.1c0,0,18.2-19.4,5.3-72.9c0,0,7.4,9.8,10.4,27.6s2.5,25.9,2.5,25.9s26.9,10.5,48.1,9.7
		c21.2-0.8,21.3,0.3,40.8,1c17.6,0.7,28.5-4.2,36.7-5.2c7.5-1,15.4,8.2,22.4,16c8.5,9.4,23.1,21.6,17.3,22
		c-4.3,0.3-25.9-20.6-25.9-20.6s-22-10.8,0.1,3.3c8.6,5.4,12.1,7,9.7,9.2c-4,3.6-17-6.1-31.4-5.3c-23.5,1.3-51.3,2.5-72.1,4.7
		s-57.3-1.3-60.4-3.5c-3.2-2.2-31.1,33.1-31.1,33.1s18.2-10.5,53.6-14.9c10.7-1.3,17.9,0.5,44.7-6.5s49-15,69.7-11.6
		s31.9,9.9,30.3,15.6c-1.6,5.6-17.5-4.5-17.5-4.5l-15.5,0.4c0,0,16.5,0.8,19.4,5s5.2,10.7,2.2,12.9c-3,2.2-7.5-7.7-7.5-7.7
		l-22.9-3.1l19.8,4.5c0,0,9.8,6.5,6.8,10.3s-11.1-3.2-11.1-3.2l-15.5-1.8c0,0,15.2,4.6,19.8,6.4s10.6,5.6,5.4,8.6
		c-5.1,3-20.7-4.6-20.7-4.6s-23-1.6-29.8-4.6s-15.8,0.2-15.8,0.2S2631.5-75,2607.5-88.2c-24-13.3-48.5-91.9-55.4-124.8
		s-23.8-71.1-26-23.3s27.1,45.9,27.1,45.9l-40.7-33.7c0,0,4.6,42.6,42.2,60.3c0,0-18.8,6.3,5,19c0,0-43.6-18.1,0,20.6
		c0,0,9.5,3.2,10.8,21.9c0,0,11.4,12.5,21.9,14.7c0,0-2.9,16.7-30,7.3c-27-9.4-27,8.9-44.4,6.6s-49.2-7.3-49.2-7.3
		s7.7-34.3,9.9-59.5c0,0-26.2,59.9-22.4,82.9c2.6,15.9,28.8-0.3,80.3-4c51.6-3.7,93.8,9.1,77.6,11.4c-16.2,2.3-103.8,4.1-103.8,4.1
		s-19.9,2.5-41.2,10.3c0,0,129.5,42.5,162.1-7.4c13.1-20-16.4-24.4,31.3-19.6s87.9,20.9,99.7,31.1s5.1,74,5.1,74l21.8,0.1
		l-20.3-99.8L2710-86.6l-7.6-14l308.5,3.9l1.6-8.7l-174.1-11.8l32.3-35.3l107.7,6.2l-17.8,3.6c0,0-19.5,17.1-22.9,20.4
		c0,0,3.1,4.5,15-6.2s11.5-8.7,11.5-8.7s-21.7,16.3-20.1,18.1c1.6,1.8,8.1,1.6,12.4-2.5c4.3-4.1,16.6-13.6,16.6-13.6
		s-23.4,18-21.2,19.5c3.3,1.7,8.8-1.4,15-6.3s9.7-7.9,9.7-7.9s24.7-50.5,29.3-49c4.5,1.5-19.3,39.8-28.3,48.2c0,0-17.9,15-17.2,15.8
		c1,1.1,7.7,2.3,13.6-3c5.9-5.3,14.1-11.3,14.1-11.3s17.4,4.5,25.4-10.9c3.2-6.1-17.3-7-17.3-7s1-2.1,18.8-7.3s20.7-17.9,29.5-23.2
		c0,0,31.1-0.6,23.5,30.6c0,0,16.2-3.6,4.9-24.3s-27.7-10.7-27.7-10.7s-7.4-17.4-0.8-63.2c0,0-13.4-33.2-16.4-58.1
		c0,0-15.2-9.7-3.5-27.4c11.7-17.6,12.4-6,17.9-13.6c4.1-5.6-13.4-2.9-24.3-2.2c-3.9,0.3-7.2-2.7-7.4-6.6c-0.1-2.6-0.1-5.7,0.2-9.3
		l-2-2.1c-1.6-1.7-1.6-4.3,0.1-5.9l2.8-2.7c0,0-1.5-0.8-4.6-2.2c-2.3-1-3.4-2.7-2.9-5.1l1.4-4.2c0,0-12.9-4.7-11.6-6.5
		c3.2-4.5,9.7-11.8,11.4-19.6c0,0-0.8-1.5-4.8-9.8c0,0-2.9-13,2.1-19.5c0,0-11.3,9.8-7.4,26.6c0,0-18.1-37.2,22.4-52
		c0,0,39.3-45.2,79.6-4.4c0,0,13.6,3.5,18,34.5c0,0-13,0.5,14.3,20.8c0,0,29.8,17.3-0.5,23.8c-30.2,6.5-6.4-10.5,3.1-34.7
		s-31-26.3-11.8-10.5c19.2,15.7,18.3-2.2,27.8,13.5s-8.7,53-37.1,35.1c-28.4-17.9,17.9-56.6,8.4-28.1s-18.6,36.2-25.3,35.7
		c-6.7-0.4-16.7-15.9-16.7-15.9s7.5-26.6-9.1-28.7c-16.7-2.2-10.8,20-10.8,20s-9.2-5.9-17-8.6s-19.9-18.4-29.7-28.2
		c0,0-2.3,6.3,0.5,12.2c2.8,5.9,0.6,8.8,13.2,13.8c12.7,4.9,10.7,11.4,20,12.9c9.3,1.6,17.9,6.9,18.8,14.3
		c0.9,7.4-3.5,28.3-3.5,28.3l-7.8,7l14.3,14l9.8,28.4h-0.1c0,0-10.1-2.8-10.9,20.9c-0.8,23.7,1.1,36.9,1.8,39.9
		c0.8,3,12.7,64.9,12.7,64.9s1.1-97.4,16-127.2c0,0,1.7-36.2,11.2-53.8c0,0,14.3,18.2,27.8,20.2s41.5-0.4,44.4,21.9
		s-2.6,12.3,10.1,39.9c12.7,27.7,25.7,94,25.7,94s7.7,22-2.3,37.6s-44.6,39.6-92.6,37.8c-36.3-2.5-49.8,1.7-49.8,1.7l-19.7,7.1
		c0,0-19.7,13.9-30.4,14.4c0,0-1.9-2.7,10-10.5c7-4.6,18.6-13.1,18.6-13.1s-9.1-0.7-17,1.6c-7.9,2.3-33.8,6.9-36.9,5.7
		c-3.1-1.2,20.9-10.9,31.9-14.5c0,0-40.4,17.4-42.5,10.3c-1.2-4.2,38.9-16.9,38.9-16.9s-45.7,18.4-48,14.2
		c-2.3-4.2,57.2-28.7,57.2-28.7s8.9,4.8,23,4.7c14.2-0.1,30.8-3.5,50.3-7.1s24.1-9.2,36.8-7.3c15.6,3.9-11.4,42.1-41.7,54.7
		s-98.2,43.6-112.5,65.3c-9.3,14.4,9,75.8,9,75.8l31.8,0.1c0,0-11.8-56.4,0.8-67c12.7-10.6,59.2-33.9,59.2-33.9s-80-19.2-10.7-10
		c44.1,6.2,80.3,65.7,80.3,65.7s-1.7,3.4-65,17c-4.5,16-4.1,53.9,5.2,6.3c0,0,49.2-15.5,95.7-18.2c46.6-2.7,62.6-19.9,70.3-35.1
		c16-31.4-8.3-67.1-30-87.7c0,0,77.9,50.8,85.4,31.8c7.5-18.9,107.8-257.1,33.6-261.2c-74.2-4-73,8.2-83.8,29
		c-11.4,21.9-85.5,180.7,10.4,212c14.5,4.7,30.2,17.4,50.5-34c0,0,51.6-14.5,39.9,22.9c-11.7,37.4-25.1,63.9-25.1,63.9
		s-221.2-26.2-159.3,6c43,22.4,147,11.3,147,11.3l0.1,17.9l-72.7,11.4c0,0-60.8,46.6-56.5,52.5c22.9,0.1,232.7,0.6,232.7,0.6"/>
</g>
</svg>
