<?xml version="1.0" encoding="utf-8"?>
<!-- Generator: Adobe Illustrator 25.0.1, SVG Export Plug-In . SVG Version: 6.00 Build 0)  -->
<svg version="1.1" id="Layer_1" xmlns="http://www.w3.org/2000/svg" xmlns:xlink="http://www.w3.org/1999/xlink" x="0px" y="0px"
	 viewBox="0 0 1920 808" style="enable-background:new 0 0 1920 808;" xml:space="preserve">
<style type="text/css">
	.st0{fill:#1977CC;}
	.st1{fill:none;stroke:#FFFFFF;stroke-width:4.0206;stroke-linecap:round;stroke-linejoin:round;}
	.st2{fill:none;stroke:#070D37;stroke-width:4.0206;stroke-linecap:round;stroke-linejoin:round;}
</style>
<rect class="st0" width="1920" height="808"/>
<image style="overflow:visible;" width="1920" height="808" xlink:href="hero-bg.jpg"  transform="matrix(1 0 0 1 2000.2252 1389.4695)">
</image>
<g>
	<path class="st1" d="M960,545l86.4,0.3c0,0-78.3-185.8-36.6-236.2c34.4-41.5,84.3,40.6,101.8,90l5.9-3.5c0,0,15.2-38.1,21.6-64.1
		c20.9-43.8,45.5-54.3,55.9-73.2c2.6-4.8,5-21,14.3-13.4c0,0-15.1,14.3-19.4-5.1c-4.3-19.5,17.9-6-3.5,2.3
		c-21.3,8.3-33-36.3-12.3-54.5c0,0,22.9,64.6,9.3,46.1c-13.5-18.5-16.7-57.2,1.1-49.6c17.8,7.6,11.2,56.5,9.9,38.4
		c-1.3-18.1-13.9-35.2,3.3-46.8c21.8-14.7,36.1-14.4,55.7-9.1c15.7,4.3,30.3-0.9,24.4,27.7c0,0-2.4-5.5-16.3-14.3l-12.1,1.4
		c0,0-10.5,4.5-5.7,9.5c4.8,5.1,11,9.9,11,9.9s-13.3,5.7-13.3,21.6c0,0-9-11.2-14.1-6.2c-5.1,5,6,32.7,12.1,21.6
		c0,0,1.1,23.7,11,22.9c9.9-0.8,22.5,0,24.3-3.3c1.8-3.4,2.5-27.9,2.5-27.9s7.8-3.6,8.2-5c0.4-1.4-9-10.8-9-10.8s0.4-6.9-0.2-10.3
		c-0.5-2.7-1.8-2.8-2.9,2.1c-1.6,7.7-1.1,17.9,0.5,17.7c1.6-0.2,2.4-8.4,2.4-8.4l-4.1-4l-47.5,1.6c0,0-16.8,4.8-12.5,11.4
		c4.3,6.6,17.4,6.8,13.9,14.1l-13.1,7.7c0,0,7.2,5.6,10.7,19.7c3.5,14.1,14.9,27.9,14.9,27.9s-6.8-17.1,2.6-26.8
		c8-7.8-0.2,4.2-0.2,16.8c0,14.8,0.5,15.6,6.9,30.8c0,0-10.4,13.5-25.2-1.8c-14.9-15.3-18.7-21-30.8-20.6c-12.1,0.4-22.7-11.1-3-9.7
		c19.7,1.5,28.2,31.7,30.3,51.6c2.1,19.9,3.8,31,6.6,56.5c2.7,25.6,8.8,9.3,25.1-6.2c0,0,14-14.9,4.1-56c0,0,5.7,7.5,8,21.2
		c2.3,13.7,1.9,19.9,1.9,19.9s20.7,8.1,37,7.4c16.3-0.6,16.4,0.2,31.4,0.8c13.5,0.5,21.9-3.2,28.3-4c5.8-0.8,11.8,6.3,17.2,12.3
		c6.5,7.2,17.8,16.6,13.3,16.9c-3.3,0.2-19.9-15.9-19.9-15.9s-16.9-8.3,0.1,2.5c6.6,4.2,9.3,5.4,7.5,7.1c-3.1,2.8-13.1-4.7-24.2-4.1
		c-18.1,1-39.4,2-55.4,3.6c-16,1.7-44-1-46.4-2.7c-2.4-1.7-23.9,25.4-23.9,25.4s14-8.1,41.2-11.4c8.2-1,13.7,0.4,34.3-5
		c20.6-5.4,37.7-11.5,53.6-8.9c15.9,2.6,24.5,7.6,23.3,12c-1.2,4.3-13.5-3.5-13.5-3.5l-11.9,0.3c0,0,12.7,0.6,14.9,3.8
		c2.2,3.2,4,8.2,1.7,9.9c-2.3,1.7-5.8-5.9-5.8-5.9l-17.6-2.4l15.2,3.5c0,0,7.5,5,5.2,7.9c-2.3,2.9-8.5-2.4-8.5-2.4l-11.9-1.4
		c0,0,11.7,3.5,15.2,4.9c3.5,1.4,8.1,4.3,4.2,6.6c-3.9,2.3-15.9-3.6-15.9-3.6s-17.7-1.3-22.9-3.5c-5.2-2.3-12.2,0.1-12.2,0.1
		s-83.7,37-102.2,26.8c-18.4-10.2-37.3-70.7-42.6-96c-5.3-25.3-18.3-54.7-20-17.9c-1.7,36.8,20.8,35.3,20.8,35.3l-31.3-25.9
		c0,0,3.5,32.7,32.5,46.3c0,0-14.4,4.9,3.9,14.6c0,0-33.5-13.9,0,15.8c0,0,7.3,2.5,8.3,16.9c0,0,8.8,9.6,16.9,11.3
		c0,0-2.3,12.8-23,5.6c-20.8-7.3-20.7,6.8-34.1,5.1c-13.4-1.7-37.8-5.6-37.8-5.6s5.9-26.4,7.6-45.7c0,0-20.1,46-17.3,63.7
		c2,12.2,22.1-0.2,61.8-3c39.6-2.8,72.1,7,59.6,8.8c-12.4,1.8-79.8,3.1-79.8,3.1s-15.3,1.9-31.7,7.9c0,0,99.5,32.7,124.6-5.7
		c10.1-15.4-12.6-18.8,24-15.1c36.6,3.7,67.5,16.1,76.6,23.9c9.1,7.9,3.9,56.9,3.9,56.9l16.8,0.1l-15.6-76.7l-45.3-22.4l-5.8-10.8
		l237.2,3l1.2-6.7l-133.8-9.1l24.8-27.2l82.8,4.7l-13.7,2.8c0,0-15,13.1-17.6,15.7c0,0,2.4,3.5,11.5-4.8c9.1-8.2,8.8-6.7,8.8-6.7
		s-16.7,12.5-15.4,13.9c1.3,1.4,6.2,1.2,9.5-1.9c3.3-3.1,12.8-10.5,12.8-10.5s-18,13.9-16.3,15c2.6,1.3,6.7-1.1,11.5-4.9
		c4.8-3.8,7.4-6.1,7.4-6.1s19-38.8,22.5-37.7c3.5,1.2-14.8,30.6-21.8,37c0,0-13.8,11.6-13.3,12.2c0.8,0.8,5.9,1.8,10.4-2.3
		c4.5-4,10.9-8.7,10.9-8.7s13.3,3.5,19.5-8.4c2.4-4.7-13.3-5.4-13.3-5.4s0.8-1.6,14.5-5.6c13.7-4,15.9-13.8,22.6-17.8
		c0,0,23.9-0.5,18.1,23.5c0,0,12.5-2.7,3.8-18.7c-8.7-15.9-21.3-8.2-21.3-8.2s-5.7-13.3-0.6-48.6c0,0-10.3-25.5-12.6-44.7
		c0,0-11.7-7.5-2.7-21c9-13.5,9.5-4.6,13.8-10.5c3.1-4.3-10.3-2.2-18.7-1.7c-3,0.2-5.5-2.1-5.7-5.1c-0.1-2-0.1-4.4,0.2-7.2l-1.5-1.6
		c-1.2-1.3-1.2-3.3,0.1-4.5l2.2-2.1c0,0-1.2-0.6-3.5-1.7c-1.8-0.8-2.6-2.1-2.2-3.9l1.1-3.2c0,0-9.9-3.6-8.9-5
		c2.5-3.4,7.5-9.1,8.7-15.1c0,0-0.6-1.2-3.7-7.5c0,0-2.2-10,1.6-15c0,0-8.7,7.5-5.7,20.4c0,0-13.9-28.6,17.3-40
		c0,0,30.2-34.8,61.2-3.4c0,0,10.5,2.7,13.9,26.5c0,0-10,0.4,11,16c0,0,22.9,13.3-0.4,18.3c-23.3,5-4.9-8.1,2.4-26.7
		c7.3-18.6-23.9-20.2-9.1-8.1c14.8,12.1,14.1-1.7,21.4,10.4c7.3,12.1-6.7,40.7-28.5,27c-21.8-13.7,13.7-43.5,6.4-21.6
		c-7.3,21.9-14.3,27.8-19.4,27.5c-5.1-0.3-12.9-12.2-12.9-12.2s5.8-20.4-7-22.1c-12.8-1.7-8.3,15.4-8.3,15.4s-7.1-4.5-13-6.6
		c-6-2.1-15.3-14.1-22.8-21.7c0,0-1.8,4.8,0.4,9.4c2.2,4.5,0.5,6.8,10.2,10.6c9.7,3.8,8.2,8.7,15.4,9.9c7.2,1.2,13.8,5.3,14.4,11
		c0.7,5.7-2.7,21.7-2.7,21.7l-6,5.4l11,10.8l7.5,21.9l-0.1,0c0,0-7.7-2.1-8.4,16.1c-0.6,18.2,0.8,28.4,1.4,30.7
		c0.6,2.3,9.8,49.9,9.8,49.9s0.8-74.9,12.3-97.8c0,0,1.3-27.8,8.6-41.4c0,0,11,14,21.4,15.6c10.3,1.5,31.9-0.3,34.2,16.8
		c2.2,17.1-2,9.4,7.8,30.7c9.8,21.3,19.8,72.3,19.8,72.3s5.9,16.9-1.8,28.9c-7.7,12-34.3,30.5-71.2,29c-27.9-1.9-38.3,1.3-38.3,1.3
		l-15.1,5.5c0,0-15.1,10.7-23.4,11.1c0,0-1.5-2,7.7-8.1c5.4-3.5,14.3-10,14.3-10s-7-0.5-13.1,1.2c-6.1,1.8-26,5.3-28.4,4.4
		c-2.4-0.9,16.1-8.4,24.5-11.1c0,0-31.1,13.4-32.7,7.9c-0.9-3.2,29.9-13,29.9-13s-35.1,14.1-36.9,10.9c-1.8-3.2,44-22.1,44-22.1
		s6.8,3.7,17.7,3.6c10.9-0.1,23.7-2.7,38.7-5.5c15-2.8,18.5-7.1,28.3-5.6c12,3-8.7,32.4-32.1,42c-23.3,9.7-75.5,33.5-86.5,50.2
		c-7.1,11.1,6.9,58.3,6.9,58.3l24.5,0.1c0,0-9.1-43.4,0.6-51.5c9.7-8.2,45.6-26.1,45.6-26.1s-61.5-14.8-8.2-7.7
		c33.9,4.8,61.7,50.5,61.7,50.5s-1.3,2.6-49.9,13.1c-3.5,12.3-3.2,41.4,4,4.8c0,0,37.8-11.9,73.6-14c35.8-2.1,48.1-15.3,54.1-27
		c12.3-24.1-6.3-51.6-23.1-67.4c0,0,59.9,39,65.7,24.5c5.7-14.6,82.9-197.7,25.8-200.8c-57.1-3.1-56.1,6.3-64.4,22.3
		c-8.8,16.8-65.7,138.9,8,163c11.2,3.6,23.2,13.4,38.8-26.1c0,0,39.7-11.1,30.7,17.6c-9,28.7-19.3,49.1-19.3,49.1
		s-170.1-20.2-122.5,4.6c33,17.2,113,8.7,113,8.7l0,13.8l-55.9,8.7c0,0-46.8,35.8-43.4,40.4c17.6,0.1,178.9,0.5,178.9,0.5"/>
</g>
<g>
	<path class="st2" d="M2274.5,40.6l112.4,0.4c0,0-101.9-241.7-47.6-307.2c44.7-54,109.6,52.8,132.5,117.1l7.7-4.5
		c0,0,19.7-49.5,28-83.4c27.1-57,59.1-70.7,72.7-95.3c3.4-6.2,6.5-27.3,18.6-17.4c0,0-19.6,18.6-25.3-6.7c-5.6-25.3,23.2-7.8-4.5,3
		c-27.7,10.8-43-47.2-16-70.9c0,0,29.7,84,12.1,60c-17.6-24-21.7-74.5,1.4-64.6c23.1,9.9,14.5,73.5,12.9,50
		c-1.6-23.6-18-45.8,4.2-60.8c28.3-19.1,47-18.8,72.4-11.8c20.5,5.6,39.5-1.2,31.8,36c0,0-3.1-7.2-21.2-18.6l-15.7,1.8
		c0,0-13.6,5.8-7.4,12.4c6.2,6.6,14.2,12.8,14.2,12.8s-17.3,7.4-17.3,28.2c0,0-11.7-14.6-18.3-8.1c-6.6,6.6,7.8,42.6,15.7,28
		c0,0,1.5,30.8,14.4,29.7c12.9-1,29.3,0.1,31.6-4.3c2.3-4.4,3.2-36.2,3.2-36.2s10.2-4.7,10.7-6.6c0.5-1.8-11.7-14-11.7-14
		s0.5-9-0.3-13.4c-0.6-3.5-2.4-3.7-3.7,2.8c-2.1,10-1.5,23.2,0.6,23c2-0.2,3.1-10.9,3.1-10.9l-5.3-5.2l-61.8,2.1
		c0,0-21.9,6.2-16.2,14.9c5.6,8.6,22.6,8.8,18.1,18.3l-17.1,10c0,0,9.3,7.2,13.9,25.6c4.5,18.4,19.4,36.3,19.4,36.3
		s-8.9-22.2,3.3-34.9c10.4-10.1-0.2,5.4-0.2,21.9c0,19.2,0.7,20.3,9,40c0,0-13.5,17.5-32.8-2.4c-19.3-19.9-24.4-27.3-40.1-26.8
		c-15.7,0.5-29.5-14.4-3.9-12.6c25.6,1.9,36.7,41.2,39.4,67.1c2.7,25.9,5,40.3,8.5,73.5c3.5,33.3,11.5,12,32.6-8.1
		c0,0,18.2-19.4,5.3-72.9c0,0,7.4,9.8,10.4,27.6c3,17.8,2.5,25.9,2.5,25.9s26.9,10.5,48.1,9.7c21.2-0.8,21.3,0.3,40.8,1
		c17.6,0.7,28.5-4.2,36.7-5.2c7.5-1,15.4,8.2,22.4,16c8.5,9.4,23.1,21.6,17.3,22c-4.3,0.3-25.9-20.6-25.9-20.6s-22-10.8,0.1,3.3
		c8.6,5.4,12.1,7,9.7,9.2c-4,3.6-17-6.1-31.4-5.3c-23.5,1.3-51.3,2.5-72.1,4.7c-20.8,2.2-57.3-1.3-60.4-3.5
		c-3.2-2.2-31.1,33.1-31.1,33.1s18.2-10.5,53.6-14.9c10.7-1.3,17.9,0.5,44.7-6.5c26.8-7,49-15,69.7-11.6
		c20.7,3.4,31.9,9.9,30.3,15.6c-1.6,5.6-17.5-4.5-17.5-4.5l-15.5,0.4c0,0,16.5,0.8,19.4,5c2.9,4.2,5.2,10.7,2.2,12.9
		c-3,2.2-7.5-7.7-7.5-7.7l-22.9-3.1l19.8,4.5c0,0,9.8,6.5,6.8,10.3c-3,3.8-11.1-3.2-11.1-3.2l-15.5-1.8c0,0,15.2,4.6,19.8,6.4
		c4.6,1.8,10.6,5.6,5.4,8.6c-5.1,3-20.7-4.6-20.7-4.6s-23-1.6-29.8-4.6c-6.8-3-15.8,0.2-15.8,0.2S2631.5-75,2607.5-88.2
		c-24-13.3-48.5-91.9-55.4-124.8c-6.9-32.9-23.8-71.1-26-23.3c-2.2,47.8,27.1,45.9,27.1,45.9l-40.7-33.7c0,0,4.6,42.6,42.2,60.3
		c0,0-18.8,6.3,5,19c0,0-43.6-18.1,0,20.6c0,0,9.5,3.2,10.8,21.9c0,0,11.4,12.5,21.9,14.7c0,0-2.9,16.7-30,7.3
		c-27-9.4-27,8.9-44.4,6.6c-17.4-2.3-49.2-7.3-49.2-7.3s7.7-34.3,9.9-59.5c0,0-26.2,59.9-22.4,82.9c2.6,15.9,28.8-0.3,80.3-4
		c51.6-3.7,93.8,9.1,77.6,11.4c-16.2,2.3-103.8,4.1-103.8,4.1s-19.9,2.5-41.2,10.3c0,0,129.5,42.5,162.1-7.4
		c13.1-20-16.4-24.4,31.3-19.6c47.7,4.8,87.9,20.9,99.7,31.1c11.8,10.2,5.1,74,5.1,74l21.8,0.1l-20.3-99.8l-58.9-29.2l-7.6-14
		l308.5,3.9l1.6-8.7l-174.1-11.8l32.3-35.3l107.7,6.2l-17.8,3.6c0,0-19.5,17.1-22.9,20.4c0,0,3.1,4.5,15-6.2
		c11.9-10.7,11.5-8.7,11.5-8.7s-21.7,16.3-20.1,18.1c1.6,1.8,8.1,1.6,12.4-2.5c4.3-4.1,16.6-13.6,16.6-13.6s-23.4,18-21.2,19.5
		c3.3,1.7,8.8-1.4,15-6.3c6.2-4.9,9.7-7.9,9.7-7.9s24.7-50.5,29.3-49c4.5,1.5-19.3,39.8-28.3,48.2c0,0-17.9,15-17.2,15.8
		c1,1.1,7.7,2.3,13.6-3c5.9-5.3,14.1-11.3,14.1-11.3s17.4,4.5,25.4-10.9c3.2-6.1-17.3-7-17.3-7s1-2.1,18.8-7.3
		c17.8-5.2,20.7-17.9,29.5-23.2c0,0,31.1-0.6,23.5,30.6c0,0,16.2-3.6,4.9-24.3c-11.3-20.7-27.7-10.7-27.7-10.7s-7.4-17.4-0.8-63.2
		c0,0-13.4-33.2-16.4-58.1c0,0-15.2-9.7-3.5-27.4c11.7-17.6,12.4-6,17.9-13.6c4.1-5.6-13.4-2.9-24.3-2.2c-3.9,0.3-7.2-2.7-7.4-6.6
		c-0.1-2.6-0.1-5.7,0.2-9.3l-2-2.1c-1.6-1.7-1.6-4.3,0.1-5.9l2.8-2.7c0,0-1.5-0.8-4.6-2.2c-2.3-1-3.4-2.7-2.9-5.1l1.4-4.2
		c0,0-12.9-4.7-11.6-6.5c3.2-4.5,9.7-11.8,11.4-19.6c0,0-0.8-1.5-4.8-9.8c0,0-2.9-13,2.1-19.5c0,0-11.3,9.8-7.4,26.6
		c0,0-18.1-37.2,22.4-52c0,0,39.3-45.2,79.6-4.4c0,0,13.6,3.5,18,34.5c0,0-13,0.5,14.3,20.8c0,0,29.8,17.3-0.5,23.8
		c-30.2,6.5-6.4-10.5,3.1-34.7c9.5-24.2-31-26.3-11.8-10.5c19.2,15.7,18.3-2.2,27.8,13.5c9.5,15.7-8.7,53-37.1,35.1
		c-28.4-17.9,17.9-56.6,8.4-28.1c-9.5,28.5-18.6,36.2-25.3,35.7c-6.7-0.4-16.7-15.9-16.7-15.9s7.5-26.6-9.1-28.7
		c-16.7-2.2-10.8,20-10.8,20s-9.2-5.9-17-8.6c-7.8-2.7-19.9-18.4-29.7-28.2c0,0-2.3,6.3,0.5,12.2c2.8,5.9,0.6,8.8,13.2,13.8
		c12.7,4.9,10.7,11.4,20,12.9c9.3,1.6,17.9,6.9,18.8,14.3c0.9,7.4-3.5,28.3-3.5,28.3l-7.8,7l14.3,14l9.8,28.4l-0.1,0
		c0,0-10.1-2.8-10.9,20.9c-0.8,23.7,1.1,36.9,1.8,39.9c0.8,3,12.7,64.9,12.7,64.9s1.1-97.4,16-127.2c0,0,1.7-36.2,11.2-53.8
		c0,0,14.3,18.2,27.8,20.2c13.5,2,41.5-0.4,44.4,21.9c2.9,22.3-2.6,12.3,10.1,39.9c12.7,27.7,25.7,94,25.7,94s7.7,22-2.3,37.6
		c-10,15.6-44.6,39.6-92.6,37.8c-36.3-2.5-49.8,1.7-49.8,1.7l-19.7,7.1c0,0-19.7,13.9-30.4,14.4c0,0-1.9-2.7,10-10.5
		c7-4.6,18.6-13.1,18.6-13.1s-9.1-0.7-17,1.6c-7.9,2.3-33.8,6.9-36.9,5.7c-3.1-1.2,20.9-10.9,31.9-14.5c0,0-40.4,17.4-42.5,10.3
		c-1.2-4.2,38.9-16.9,38.9-16.9s-45.7,18.4-48,14.2c-2.3-4.2,57.2-28.7,57.2-28.7s8.9,4.8,23,4.7c14.2-0.1,30.8-3.5,50.3-7.1
		c19.5-3.6,24.1-9.2,36.8-7.3c15.6,3.9-11.4,42.1-41.7,54.7c-30.3,12.6-98.2,43.6-112.5,65.3c-9.3,14.4,9,75.8,9,75.8l31.8,0.1
		c0,0-11.8-56.4,0.8-67c12.7-10.6,59.2-33.9,59.2-33.9s-80-19.2-10.7-10c44.1,6.2,80.3,65.7,80.3,65.7s-1.7,3.4-65,17
		c-4.5,16-4.1,53.9,5.2,6.3c0,0,49.2-15.5,95.7-18.2c46.6-2.7,62.6-19.9,70.3-35.1c16-31.4-8.3-67.1-30-87.7
		c0,0,77.9,50.8,85.4,31.8c7.5-18.9,107.8-257.1,33.6-261.2c-74.2-4-73,8.2-83.8,29c-11.4,21.9-85.5,180.7,10.4,212
		c14.5,4.7,30.2,17.4,50.5-34c0,0,51.6-14.5,39.9,22.9c-11.7,37.4-25.1,63.9-25.1,63.9s-221.2-26.2-159.3,6
		c43,22.4,147,11.3,147,11.3l0.1,17.9l-72.7,11.4c0,0-60.8,46.6-56.5,52.5c22.9,0.1,232.7,0.6,232.7,0.6"/>
</g>
</svg>
